<?xml version="1.0" encoding="utf-8"?>
<!-- Generator: Adobe Illustrator 23.0.1, SVG Export Plug-In . SVG Version: 6.00 Build 0)  -->
<svg version="1.1" id="Layer_1" xmlns="http://www.w3.org/2000/svg" xmlns:xlink="http://www.w3.org/1999/xlink" x="0px" y="0px"
	 viewBox="0 0 56.55 56.55" style="enable-background:new 0 0 56.55 56.55;" xml:space="preserve">
<style type="text/css">
	.st0{fill:#F7AA1A;}
	.st1{fill:#51999D;}
</style>
<g>
	<path class="st0" d="M28.28,41.77c1.08,0,2.12-0.13,3.12-0.37c0.4-0.09,0.52-0.6,0.21-0.86l-3.02-2.51c-0.18-0.15-0.45-0.15-0.63,0
		l-3.02,2.51c-0.31,0.26-0.19,0.77,0.21,0.86C26.15,41.64,27.2,41.77,28.28,41.77"/>
	<path class="st0" d="M28.28,49.12c3.44,0,6.67-0.84,9.53-2.31c0.39-0.2,0.44-0.74,0.1-1.02l-2.44-2.03
		c-0.18-0.15-0.42-0.18-0.64-0.09c-2.02,0.86-4.23,1.35-6.56,1.35c-2.33,0-4.54-0.49-6.56-1.35c-0.21-0.09-0.46-0.06-0.64,0.09
		l-2.44,2.03c-0.34,0.28-0.29,0.82,0.1,1.02C21.6,48.28,24.84,49.12,28.28,49.12"/>
	<path class="st0" d="M28.28,56.55c5.72,0,11.04-1.71,15.49-4.63c0.42-0.28,0.45-0.89,0.06-1.22l-2.09-1.74
		c-0.25-0.21-0.6-0.23-0.88-0.06c-3.67,2.25-7.98,3.55-12.58,3.55s-8.91-1.3-12.58-3.55c-0.28-0.17-0.63-0.15-0.88,0.06l-2.09,1.74
		c-0.39,0.32-0.37,0.94,0.06,1.22C17.23,54.85,22.55,56.55,28.28,56.55"/>
	<path class="st1" d="M27.47,0.01C12.88,0.42,0.82,12.15,0.04,26.73c-0.43,8.07,2.53,15.45,7.59,20.86c0.6,0.64,1.59,0.71,2.27,0.15
		c3.12-2.59,11.69-9.72,15.94-13.25c0.21-0.18,0.33-0.44,0.33-0.72v-7.48c0-0.24-0.2-0.44-0.44-0.44h-3.28
		c-0.28,0-0.51-0.23-0.51-0.51v-3.25c0-0.26,0.21-0.47,0.47-0.47h3.29c0.26,0,0.47-0.21,0.47-0.47v-3.29c0-0.25,0.2-0.46,0.46-0.46
		h3.26c0.28,0,0.5,0.22,0.5,0.5v3.27c0,0.24,0.2,0.44,0.44,0.44h3.32c0.25,0,0.46,0.2,0.46,0.45v3.28c0,0.27-0.22,0.48-0.48,0.48
		h-3.3c-0.24,0-0.44,0.2-0.44,0.44v7.44c0,0.3,0.13,0.58,0.36,0.77l16.01,13.31c0.62,0.52,1.53,0.45,2.09-0.14
		c4.78-5.06,7.71-11.89,7.71-19.4C56.55,12.39,43.46-0.43,27.47,0.01"/>
</g>
</svg>
